<?xml version="1.0" encoding="UTF-8"?>
<svg id="Layer_1" data-name="Layer 1" xmlns="http://www.w3.org/2000/svg" viewBox="0 0 560 288">
  <defs>
    <style>
      .cls-1, .cls-2, .cls-3, .cls-4 {
        fill: #fff;
      }

      .cls-2, .cls-3, .cls-5, .cls-6, .cls-4 {
        fill-rule: evenodd;
      }

      .cls-3 {
        stroke: #939598;
      }

      .cls-3, .cls-5, .cls-6, .cls-4 {
        stroke-miterlimit: 22.93;
        stroke-width: .57px;
      }

      .cls-5 {
        fill: #231f20;
        stroke: #231f20;
      }

      .cls-6 {
        stroke: #fce5ef;
      }

      .cls-4 {
        stroke: #fef1f6;
      }

      .cls-7 {
        fill: #0059aa;
      }
    </style>
  </defs>
  <path class="cls-6" d="m83.86,12.71l390.69-1.89c41.44-.2,75.39,29.9,75.61,67.05l.78,129.64c.22,37.15-33.36,67.58-74.8,67.78l-390.69,1.89c-41.44.2-75.39-29.9-75.61-67.05l-.78-129.64c-.22-37.15,33.36-67.58,74.8-67.78h0Z"/>
  <path class="cls-2" d="m83.91,20.49l390.69-1.89c36.65-.18,66.69,26.46,66.89,59.32l.78,129.64c.2,32.86-29.52,59.78-66.17,59.96l-390.69,1.89c-36.65.18-66.69-26.46-66.89-59.32l-.78-129.64c-.2-32.86,29.52-59.78,66.17-59.96h0Z"/>
  <path class="cls-3" d="m83.91,20.49l390.69-1.89c36.65-.18,66.69,26.46,66.89,59.32l.78,129.64c.2,32.86-29.52,59.78-66.17,59.96l-390.69,1.89c-36.65.18-66.69-26.46-66.89-59.32l-.78-129.64c-.2-32.86,29.52-59.78,66.17-59.96h0Z"/>
  <path class="cls-4" d="m83.91,20.49l390.69-1.89c36.65-.18,66.69,26.46,66.89,59.32l.78,129.64c.2,32.86-29.52,59.78-66.17,59.96l-390.69,1.89c-36.65.18-66.69-26.46-66.89-59.32l-.78-129.64c-.2-32.86,29.52-59.78,66.17-59.96h0Z"/>
  <path class="cls-5" d="m83.95,28.27l390.69-1.89c31.86-.15,57.99,23.02,58.16,51.58l.78,129.64c.17,28.56-25.67,51.98-57.54,52.14l-390.69,1.89c-31.86.15-57.99-23.02-58.16-51.58l-.78-129.64c-.17-28.56,25.67-51.98,57.54-52.14h0Z"/>
  <path class="cls-2" d="m213.35,61.83l76.49-.37,44.03,72.36.14-50.47c-.01-2.31-.06-4.63-.23-6.93-.09-1.18-.19-2.59-.49-3.75-.47-1.81-1.88-3.74-3.1-5.17l-5.27-6.22,46.3-.22-5.2,6.27c-1.19,1.44-2.58,3.38-3.03,5.2-.29,1.16-.38,2.57-.45,3.75-.14,2.31-.16,4.64-.14,6.95l.53,87.3-66.96.32-44.76-73.56v51.66c.03,2.31.07,4.64.24,6.95.09,1.18.19,2.59.49,3.75.47,1.81,1.88,3.74,3.1,5.17l5.27,6.22-99.42.48-26.2-40.67-6.23,5.85.08,13.64c.02,2.9.08,6.68.81,9.51.55,2.14,1.5,4.19,2.62,6.11l3.32,5.68-68.24.33,3.44-5.77c1.13-1.9,1.9-3.98,2.41-6.11.7-3,.82-6.42.8-9.48l-.4-66.77c-.02-2.91-.08-6.68-.81-9.51-.55-2.14-1.5-4.19-2.62-6.11l-3.32-5.68,68.24-.33-3.44,5.77c-1.13,1.9-1.9,3.98-2.41,6.11-.7,3-.82,6.42-.8,9.48l.11,18.78,24.97-24.32c1.45-1.4,3.48-3.42,4.45-5.17.54-.98.85-2.01.84-3.12l-.05-7.66,54.88-.27h0Zm2.56,3.02l-9.24,4.31c-2.72,1.27-5.48,2.62-8.05,4.15-2.48,1.47-4.87,3.43-7.02,5.31l-19.94,17.9,34.37,47.95c2.75,3.82,5.63,7.55,8.69,11.15,2,2.36,4.12,4.63,6.36,6.79.52-.86.95-1.76,1.17-2.62.29-1.16.38-2.57.45-3.75.14-2.31.16-4.64.14-6.95l-.39-65.18c-.01-2.31-.06-4.64-.23-6.95-.09-1.18-.19-2.59-.49-3.75-.47-1.81-1.88-3.74-3.1-5.17l-2.71-3.2h0Zm260.04,21.13c-2.95-.69-6.23-.85-9.25-.84l-33.55.16c-1.16,0-4,.15-4.79,1.18-.31.4-.36,1.05-.36,1.52l.33,55c0,.47.07,1.12.38,1.52.81,1.02,3.64,1.13,4.8,1.13l26.46-.13c3.71-.02,7.44-.06,11.14-.23,2-.09,4.22-.18,6.2-.52,3.13-.52,6.32-1.66,9.21-2.88l6.95-2.92-5.84,30.95-78.89.38c-9.25.04-19.08-1.64-26.1-7.83-7.33-6.46-9.14-16.66-9.2-25.73l-.25-41.97c-.05-9.07,1.67-19.17,8.87-25.73,6.93-6.31,16.74-8.13,26.02-8.17l77.03-.37,5.61,30.77-6.8-2.72c-2.59-1.04-5.25-1.92-7.97-2.58h0Z"/>
  <path class="cls-7" d="m202.69,146.64c2.97,4.12,5.93,7.92,8.89,11.4,2.96,3.48,5.98,6.6,9.07,9.34l-57.51.28-27.67-42.94-11.06,10.39.09,15.26c.03,4.66.34,8.13.93,10.41.59,2.27,1.59,4.63,3.01,7.06l-54.44.26c1.26-2.13,2.21-4.51,2.83-7.17.62-2.65.92-6.1.9-10.34l-.4-66.76c-.03-4.66-.34-8.13-.93-10.41-.59-2.28-1.59-4.63-3.01-7.06l54.44-.26c-1.26,2.13-2.21,4.52-2.83,7.17-.62,2.65-.92,6.1-.9,10.34l.17,28.14,31.83-30.99c2.54-2.45,4.25-4.47,5.14-6.07.88-1.59,1.32-3.24,1.31-4.93l-.02-3.81,42.36-.21c-3.44,1.61-6.24,3.05-8.41,4.33-2.17,1.28-4.71,3.2-7.63,5.76l-22.47,20.16,36.31,50.67h0Zm44.47-63.64l.02,65.97c.03,5.72.31,9.59.83,11.6.52,2.01,1.82,4.23,3.87,6.66l-29.52.14c2.03-2.45,3.29-4.68,3.79-6.7.5-2.02.73-5.88.7-11.61l-.39-65.17c-.03-5.72-.31-9.59-.84-11.6-.52-2.01-1.81-4.23-3.87-6.66l65.75-.32,50.34,82.74.18-64.7c-.03-5.72-.31-9.59-.84-11.6-.52-2.01-1.81-4.23-3.87-6.66l29.52-.14c-2.03,2.45-3.29,4.68-3.79,6.7-.5,2.02-.73,5.89-.7,11.61l.5,83.45-60.58.29-51.12-84h0Zm238.3,2.02c-2.94-1.18-5.79-2.09-8.55-2.77-2.75-.65-6.17-.98-10.26-.96l-33.55.16c-6.13.03-9.19,2.22-9.16,6.56l.33,55c.03,4.34,3.11,6.5,9.24,6.47l26.45-.13c9.07-.04,15.08-.31,18.02-.8,2.94-.49,6.32-1.54,10.14-3.15l-3.9,20.68-75.53.37c-10.35.05-18.13-2.22-23.33-6.8-5.2-4.58-7.84-12.23-7.9-22.93l-.25-41.97c-.06-10.6,2.48-18.24,7.63-22.93,5.15-4.69,12.9-7.06,23.25-7.11l73.61-.36,3.77,20.65h0Z"/>
  <path class="cls-1" d="m86.96,206.99l6.81,10.39c.19.3.42.64.69,1.02.27.38.56.76.87,1.15.27.37.56.73.87,1.09.31.36.63.69.94.99h-10.94l-5.18-8.8-2.1,2.11v3.12c0,.97.06,1.71.18,2.19.12.49.29.93.51,1.32,0,.02,0,.04.02.05.01.01.02.02.02.02h-10.29s0,0,.02-.02c.01-.01.02-.03.02-.05.22-.39.39-.83.51-1.32.12-.49.18-1.22.18-2.19v-13.71c0-.97-.06-1.71-.18-2.19-.12-.49-.29-.93-.51-1.32,0-.02,0-.04-.02-.05-.01-.01-.02-.02-.02-.02h10.29s0,0-.02.02c-.01.01-.02.03-.02.05-.22.39-.39.83-.51,1.32-.12.49-.18,1.22-.18,2.19v5.81l6.05-6.37c.39-.39.67-.72.85-.99.18-.27.3-.54.34-.8,0-.07,0-.14.02-.21.01-.08.02-.16.02-.24,0-.13,0-.26-.02-.39-.01-.13-.03-.26-.05-.39h8.15c-.1.04-.19.09-.27.13-.08.04-.16.09-.24.13-.1.04-.2.09-.31.15-.11.05-.21.11-.31.18-.29.15-.59.34-.89.57-.3.23-.65.53-1.03.89l-4.28,4.16h0Zm11.52,11.14v-8.25c0-.95-.08-1.65-.24-2.09-.16-.44-.34-.84-.56-1.19-.02-.04-.05-.08-.07-.11-.02-.03-.05-.07-.07-.11h9.49v11.76c0,.95.08,1.65.24,2.09.16.44.34.84.56,1.19.02.04.05.08.07.11.02.03.05.07.07.11h-10.43s.05-.08.07-.11c.02-.03.05-.07.07-.11.22-.35.4-.74.56-1.19s.24-1.14.24-2.09h0Zm.07-17.34h8.41v4.03h-8.41v-4.03h0Zm14.02,5.59v-3.18l8.55-.19v3.38h6.88v2.99h-6.88v8.05c0,.48.1.8.29.97.19.17.66.26,1.41.26h3.01c.53,0,1-.03,1.41-.1.41-.06.75-.14,1.01-.23.17-.04.31-.09.43-.15.12-.05.22-.09.29-.11l-.54,3.57h-10.8c-1.35,0-2.54-.32-3.55-.96-1.01-.64-1.52-1.91-1.52-3.82v-7.5h-3.66v-2.99h3.66Zm26.48,4.55v6.17c.02.54.19.94.49,1.19.3.25.79.37,1.47.37h4.17c1.3,0,2.24-.06,2.81-.18.57-.12,1.07-.27,1.5-.44.05-.02.1-.04.15-.07.05-.02.1-.04.14-.07l-.62,3.74h-13.3c-1.96,0-3.34-.44-4.15-1.33-.81-.89-1.21-2.02-1.21-3.41v-5.78c0-1.41.4-2.55,1.21-3.43.81-.88,2.19-1.32,4.15-1.32h13.37l.76,3.8c-.31-.28-.81-.49-1.49-.62-.68-.13-1.55-.19-2.61-.19h-4.89c-.68,0-1.17.12-1.47.36-.3.24-.46.64-.49,1.2h0Zm12.46-10.13h9.49v7.08h.07c.24-.3.44-.55.6-.75.16-.19.31-.35.45-.45.12-.11.26-.18.42-.23.16-.04.36-.06.6-.06h6.74c2,0,3.45.5,4.35,1.49.89,1,1.34,2.35,1.34,4.06v6.2c0,.95.08,1.65.24,2.09.16.44.34.84.56,1.19.02.04.05.08.07.11.02.03.05.07.07.11h-10.51s.05-.08.07-.11c.02-.03.05-.07.07-.11.22-.35.4-.74.56-1.19.16-.44.24-1.14.24-2.09v-7.5c0-.48-.1-.81-.31-.99-.21-.18-.57-.28-1.11-.28h-3.12c-.53,0-.9.09-1.11.28-.21.18-.31.51-.31.99v7.5c0,.95.08,1.65.24,2.09s.34.84.56,1.19c.02.04.05.08.07.11.02.03.05.07.07.11h-10.43s.05-.08.07-.11c.02-.03.05-.07.07-.11.22-.35.4-.74.56-1.19.16-.44.24-1.14.24-2.09v-13.84c0-.95-.08-1.65-.24-2.09-.16-.44-.34-.84-.56-1.19-.02-.04-.05-.08-.07-.11-.02-.03-.05-.07-.07-.11h0Zm49.71,14.88h-14.38v1.43c.02.54.19.94.49,1.19.3.25.79.37,1.47.37h8.3c.48,0,.91-.01,1.29-.03.37-.02.74-.08,1.11-.16.24-.04.48-.1.72-.18.24-.08.5-.17.76-.28l-.65,3.64h-17.1c-1.91,0-3.21-.37-3.89-1.12-.69-.75-1.03-1.91-1.03-3.49v-6.04c0-1.6.34-2.77,1.03-3.51.69-.74,1.99-1.1,3.89-1.1h13.08c1.93,0,3.24.37,3.91,1.1.68.74,1.01,1.91,1.01,3.51v4.68h0Zm-14.38-2.99h5.98v-2.08c0-.43-.08-.75-.25-.94-.17-.19-.5-.29-.98-.29h-3.51c-.46,0-.78.1-.96.29-.18.19-.27.51-.27.94v2.08h0Zm16.49-6.3h8.84l.25,1.59h.07s0-.04.02-.05c.01-.01.02-.03.02-.05.19-.37.45-.71.78-1.02.33-.31.79-.47,1.4-.47h6.99c2,0,3.45.5,4.35,1.49.89,1,1.34,2.35,1.34,4.06v6.2c0,.95.08,1.65.24,2.09.16.44.34.84.56,1.19.02.04.05.08.07.11.02.03.05.07.07.11h-10.51s.05-.08.07-.11c.02-.03.05-.07.07-.11.22-.35.4-.74.56-1.19.16-.44.24-1.14.24-2.09v-7.5c0-.48-.1-.81-.31-.99-.21-.18-.57-.28-1.11-.28h-3.12c-.53,0-.9.09-1.11.28-.21.18-.31.51-.31.99v7.5c0,.95.08,1.65.24,2.09.16.44.34.84.56,1.19.02.04.05.08.07.11.02.03.05.07.07.11h-10.43s.05-.08.07-.11c.02-.03.05-.07.07-.11.22-.35.4-.74.56-1.19.16-.44.24-1.14.24-2.09v-8.25c0-.95-.08-1.65-.24-2.09-.16-.44-.34-.84-.56-1.19-.02-.04-.05-.08-.07-.11-.02-.03-.05-.07-.07-.11h0Zm36.27,4.55h7.39c2,0,3.28.37,3.82,1.12.54.75.84,1.59.89,2.52v3.41c-.07.91-.5,1.75-1.27,2.52-.77.77-2.08,1.15-3.91,1.15h-15.87l-.65-3.67c.19.09.38.16.56.23.18.07.37.13.56.2.48.17,1.03.29,1.63.36.6.07,1.46.1,2.57.1h7.21c.43,0,.73-.06.89-.18.16-.12.24-.33.24-.63v-.32c0-.3-.08-.51-.24-.63-.16-.12-.45-.18-.89-.18h-7.43c-1.96,0-3.21-.38-3.75-1.14-.54-.76-.84-1.6-.89-2.53v-2.96c0-1.17.5-2.11,1.49-2.83.99-.71,2.29-1.07,3.91-1.07h14.78l.72,3.8c-.29-.3-.83-.54-1.61-.7-.79-.16-1.62-.25-2.52-.28-.17-.02-.34-.03-.51-.03h-7.14c-.41,0-.71.05-.89.15-.18.1-.27.23-.27.41v.65c0,.17.09.31.27.41.18.1.48.15.89.15h0Zm43.11,10.72l-.36-.62-9.17-16.63-.04-.03h-.07v13.54c0,.91.02,1.58.07,2,.05.42.17.81.36,1.15.07.09.14.18.2.28.06.1.14.2.24.31h-5.58c.1-.11.18-.21.24-.31.06-.1.13-.19.2-.28.19-.35.31-.73.36-1.15.05-.42.07-1.09.07-2v-13.38c0-.91-.02-1.58-.07-2-.05-.42-.17-.81-.36-1.15-.07-.09-.14-.18-.2-.28s-.14-.2-.24-.31h12.43l.22.36,9.24,16.63.04.03h.11v-13.28c0-.91-.02-1.58-.07-2-.05-.42-.17-.81-.36-1.15-.07-.09-.14-.18-.2-.28-.06-.1-.14-.2-.24-.31h5.58c-.1.11-.18.21-.24.31-.06.1-.13.19-.2.28-.19.35-.31.73-.36,1.15-.05.42-.07,1.09-.07,2v17.12h-11.52Zm49.02-20.85l.69,3.99s-.1-.04-.16-.07c-.06-.02-.11-.03-.16-.03-.43-.13-.89-.24-1.38-.32-.48-.09-1.1-.13-1.85-.13h-6.41c-.58,0-1.01.1-1.3.29-.29.19-.43.56-.43,1.1v11.24c0,.5.15.84.43,1.04.29.19.72.29,1.3.29h5c1.5,0,2.57-.04,3.21-.13.64-.09,1.18-.22,1.61-.39.1-.04.19-.09.29-.13.1-.04.19-.09.29-.13l-.76,4.22h-14.35c-1.88,0-3.33-.46-4.35-1.38-1.01-.92-1.52-2.5-1.52-4.73v-8.57c0-2.27.51-3.87,1.52-4.79,1.01-.92,2.46-1.38,4.35-1.38h13.99Zm4.02,5.59h15.65c2.05,0,3.52.43,4.4,1.3.88.87,1.32,2.35,1.32,4.45v6.66c0,.78.08,1.37.24,1.79.16.41.36.77.6,1.07h-8.62l-.43-1.69h-.07c-.22.67-.56,1.12-1.03,1.35-.47.23-1.29.34-2.45.34h-6.09c-1.91,0-3.21-.37-3.89-1.12-.69-.75-1.03-1.91-1.03-3.49v-1.1c0-1.6.34-2.77,1.03-3.51.69-.74,1.99-1.1,3.89-1.1h7.79c.6,0,1-.08,1.18-.23.18-.15.27-.4.27-.75s-.09-.6-.27-.75c-.18-.15-.57-.23-1.18-.23h-8.51c-.63,0-1.15.03-1.58.1-.42.07-.83.16-1.21.29-.1.04-.19.09-.29.13-.1.04-.21.09-.33.13l.62-3.64h0Zm12.75,7.92h-3.8c-.65.02-1.12.1-1.4.24-.28.14-.42.49-.42,1.06v1.75c0,.54.14.89.42,1.04.28.15.74.24,1.4.26h1.99c.82,0,1.33-.12,1.52-.36.19-.24.29-.84.29-1.82v-2.18h0Zm19.53,7.34h-8.55c.19-.3.36-.66.51-1.07.15-.41.22-1.01.22-1.79v-15.14c0-.78-.07-1.37-.22-1.79-.14-.41-.31-.77-.51-1.07h9.27v7.08h.07c.02-.07.05-.14.09-.21.04-.08.07-.16.09-.24.14-.26.37-.5.67-.71.3-.22.75-.32,1.36-.32h6.78c1.96,0,3.34.44,4.15,1.32.81.88,1.21,2.02,1.21,3.43v5.78c0,1.39-.4,2.52-1.21,3.41-.81.89-2.19,1.33-4.15,1.33h-7.28c-.34,0-.62-.07-.83-.21-.22-.14-.43-.35-.65-.63-.07-.11-.14-.23-.22-.36-.07-.13-.16-.27-.25-.42l-.54,1.62h0Zm.72-11.11v6.95c0,.41.1.71.29.89.19.18.5.28.91.28h3.41c.41,0,.71-.09.91-.28.19-.18.29-.48.29-.89v-6.95c0-.43-.1-.74-.29-.91-.19-.17-.5-.26-.91-.26h-3.41c-.41,0-.71.09-.91.26-.19.17-.29.48-.29.91h0Zm17.68,7.6v-8.25c0-.95-.08-1.65-.24-2.09-.16-.44-.34-.84-.56-1.19-.02-.04-.05-.08-.07-.11-.02-.03-.05-.07-.07-.11h9.49v11.76c0,.95.08,1.65.24,2.09s.34.84.56,1.19c.02.04.05.08.07.11.02.03.05.07.07.11h-10.43s.05-.08.07-.11c.02-.03.05-.07.07-.11.22-.35.4-.74.56-1.19.16-.44.24-1.14.24-2.09h0Zm.07-17.34h8.41v4.03h-8.41v-4.03h0Zm11.2,5.59h8.84l.25,1.59h.07s0-.04.02-.05c.01-.01.02-.03.02-.05.19-.37.45-.71.78-1.02.33-.31.79-.47,1.4-.47h6.99c2,0,3.45.5,4.35,1.49.89,1,1.34,2.35,1.34,4.06v6.2c0,.95.08,1.65.24,2.09s.34.84.56,1.19c.02.04.05.08.07.11.02.03.05.07.07.11h-10.51s.05-.08.07-.11c.02-.03.05-.07.07-.11.22-.35.4-.74.56-1.19s.24-1.14.24-2.09v-7.5c0-.48-.1-.81-.31-.99-.21-.18-.57-.28-1.11-.28h-3.12c-.53,0-.9.09-1.11.28-.21.18-.31.51-.31.99v7.5c0,.95.08,1.65.24,2.09s.34.84.56,1.19c.02.04.05.08.07.11.02.03.05.07.07.11h-10.43s.05-.08.07-.11c.02-.03.05-.07.07-.11.22-.35.4-.74.56-1.19.16-.44.24-1.14.24-2.09v-8.25c0-.95-.08-1.65-.24-2.09-.16-.44-.34-.84-.56-1.19-.02-.04-.05-.08-.07-.11-.02-.03-.05-.07-.07-.11h0Zm49.71,9.29h-14.38v1.43c.02.54.19.94.49,1.19.3.25.79.37,1.47.37h8.3c.48,0,.91-.01,1.29-.03.37-.02.74-.08,1.11-.16.24-.04.48-.1.72-.18.24-.08.5-.17.76-.28l-.65,3.64h-17.1c-1.91,0-3.21-.37-3.89-1.12-.69-.75-1.03-1.91-1.03-3.49v-6.04c0-1.6.34-2.77,1.03-3.51.69-.74,1.99-1.1,3.89-1.1h13.08c1.93,0,3.24.37,3.91,1.1.68.74,1.01,1.91,1.01,3.51v4.68h0Zm-14.38-2.99h5.98v-2.08c0-.43-.08-.75-.25-.94-.17-.19-.5-.29-.98-.29h-3.51c-.46,0-.78.1-.96.29-.18.19-.27.51-.27.94v2.08h0Zm19.31-6.3v-3.18l8.55-.19v3.38h6.88v2.99h-6.88v8.05c0,.48.1.8.29.97.19.17.66.26,1.41.26h3.01c.53,0,1-.03,1.41-.1.41-.06.75-.14,1.01-.23.17-.04.31-.09.43-.15.12-.05.22-.09.29-.11l-.54,3.57h-10.8c-1.35,0-2.54-.32-3.55-.96-1.01-.64-1.52-1.91-1.52-3.82v-7.5h-3.66v-2.99h3.66Zm27.43,4.55h7.39c2,0,3.28.37,3.82,1.12.54.75.84,1.59.89,2.52v3.41c-.07.91-.5,1.75-1.27,2.52-.77.77-2.08,1.15-3.91,1.15h-15.87l-.65-3.67c.19.09.38.16.56.23.18.07.37.13.56.2.48.17,1.03.29,1.63.36.6.07,1.46.1,2.57.1h7.21c.43,0,.73-.06.89-.18.16-.12.24-.33.24-.63v-.32c0-.3-.08-.51-.24-.63-.16-.12-.45-.18-.89-.18h-7.43c-1.96,0-3.21-.38-3.75-1.14-.54-.76-.84-1.6-.89-2.53v-2.96c0-1.17.5-2.11,1.49-2.83.99-.71,2.29-1.07,3.91-1.07h14.78l.72,3.8c-.29-.3-.83-.54-1.61-.7-.79-.16-1.62-.25-2.52-.28-.17-.02-.34-.03-.51-.03h-7.14c-.41,0-.71.05-.89.15-.18.1-.27.23-.27.41v.65c0,.17.09.31.27.41.18.1.48.15.89.15h0Z"/>
</svg>