<?xml version="1.0" encoding="UTF-8"?>
<svg id="Layer_1" data-name="Layer 1" xmlns="http://www.w3.org/2000/svg" viewBox="0 0 560 288">
  <defs>
    <style>
      .cls-1 {
        fill: #47a8de;
      }

      .cls-1, .cls-2, .cls-3, .cls-4 {
        fill-rule: evenodd;
      }

      .cls-5 {
        fill: #2c3e51;
      }

      .cls-6 {
        fill: #48aadf;
      }

      .cls-2 {
        fill: #d94fff;
      }

      .cls-3 {
        fill: #2b3d4f;
      }

      .cls-4 {
        fill: #3f78ba;
      }
    </style>
  </defs>
  <g id="g10">
    <g id="g12">
      <path id="path14" class="cls-1" d="m174.37,136.15h9.08c-1.45-10.15-4.45-19.6-9-28.35-4.55-8.75-10.35-16.5-17.4-23.25-7.05-6.8-15.08-12.3-24.08-16.5-8.95-4.2-18.55-6.8-28.8-7.8v9c9,1,17.45,3.35,25.35,7.05,7.85,3.75,14.9,8.59,21.15,14.55,6.25,5.95,11.4,12.77,15.45,20.47,4.1,7.65,6.85,15.93,8.25,24.83"/>
      <path id="path16" class="cls-2" d="m83.92,69.7v-9.08c-9.85,1.35-19.05,4.2-27.6,8.55-8.55,4.29-16.2,9.8-22.95,16.5-6.7,6.7-12.23,14.32-16.58,22.88-4.35,8.55-7.23,17.72-8.62,27.52h9.07c1.85-11.5,5.85-21.93,12-31.27,6.2-9.35,13.98-17.08,23.33-23.18,9.4-6.15,19.85-10.13,31.35-11.92"/>
      <path id="path18" class="cls-4" d="m16.64,156.4H7.64c1,10.3,3.6,19.98,7.8,29.03,4.2,9,9.7,17.04,16.5,24.15,6.8,7.1,14.6,12.93,23.4,17.48,8.8,4.55,18.3,7.55,28.5,9v-9.08c-8.95-1.4-17.27-4.15-24.97-8.25-7.75-4.05-14.6-9.23-20.55-15.53-6-6.25-10.88-13.35-14.63-21.3-3.75-7.9-6.1-16.4-7.05-25.5"/>
      <path id="path20" class="cls-3" d="m104.17,227.43v9c10.6-1.05,20.52-3.8,29.78-8.25,9.2-4.45,17.37-10.25,24.52-17.4,7.15-7.15,12.93-15.35,17.33-24.6,4.4-9.21,7.1-19.13,8.1-29.78h-9c-1,9.4-3.47,18.15-7.42,26.25-3.9,8.15-9.02,15.4-15.37,21.75-6.3,6.35-13.52,11.53-21.67,15.53-8.15,3.95-16.9,6.45-26.25,7.5"/>
      <path id="path22" class="cls-3" d="m50.1,106.85v-7.35h20.86v7.35h-6.59v29.99c0,3.6.4,6.66,1.21,9.19.81,2.54,1.93,4.61,3.36,6.21,1.43,1.6,3.13,2.77,5.1,3.5,1.97.74,4.13,1.1,6.47,1.1s4.68-.32,6.72-.97c2.04-.65,3.78-1.75,5.24-3.29,1.46-1.55,2.59-3.6,3.4-6.16.81-2.57,1.21-5.76,1.21-9.58v-29.99h-6.97v-7.35h20.85v7.35h-5.73v29.06c0,4.65-.64,8.77-1.93,12.36-1.29,3.6-3.05,6.62-5.29,9.05-2.24,2.44-4.87,4.28-7.9,5.54-3.03,1.26-6.29,1.89-9.77,1.89s-6.57-.62-9.53-1.87c-2.96-1.25-5.54-3.07-7.73-5.48-2.19-2.41-3.92-5.35-5.18-8.82-1.26-3.47-1.89-7.44-1.89-11.91v-29.82"/>
      <path id="path24" class="cls-3" d="m90.37,140.6v-7.35h26.04c2.89,0,5.54.38,7.96,1.13,2.43.75,4.52,1.86,6.29,3.32,1.77,1.46,3.15,3.27,4.13,5.45.97,2.18,1.46,4.69,1.46,7.52,0,2.36-.48,4.57-1.45,6.65-.96,2.08-2.32,3.9-4.08,5.46-1.75,1.56-3.86,2.79-6.3,3.69-2.45.91-5.18,1.36-8.18,1.36h-11.43v22.52h6.46v7.31h-20.9v-7.31h6.12v-49.75s-6.12,0-6.12,0Zm24.98,0h-10.54v20.26h11.6c1.61,0,3.09-.22,4.44-.66,1.34-.44,2.5-1.08,3.48-1.93.98-.85,1.74-1.91,2.3-3.19.55-1.27.83-2.74.83-4.42,0-3.17-.96-5.64-2.89-7.41-1.93-1.77-5-2.65-9.22-2.65"/>
      <path id="path26" class="cls-5" d="m205.19,113.21h16.9v5.95h-5.34v24.3c0,2.93.33,5.41.99,7.48.66,2.05,1.56,3.72,2.72,5.02,1.17,1.3,2.55,2.24,4.15,2.84,1.59.6,3.34.89,5.25.89s3.77-.26,5.41-.77c1.65-.53,3.08-1.42,4.27-2.67,1.18-1.25,2.1-2.91,2.74-4.99.66-2.07.98-4.67.98-7.78v-24.3h-5.63v-5.95h16.9v5.95h-4.66v23.55c0,3.77-.53,7.11-1.57,10.03-1.03,2.91-2.46,5.36-4.27,7.34-1.82,1.97-3.96,3.46-6.42,4.48-2.46,1.01-5.09,1.52-7.9,1.52s-5.34-.5-7.73-1.5c-2.39-1.01-4.48-2.5-6.26-4.45-1.78-1.95-3.19-4.32-4.22-7.13-1.02-2.81-1.52-6.03-1.52-9.66v-24.19h-4.78v-5.95Zm78.48,24.07h-6.54v-2.2c-.75,0-1.52.15-2.32.45-.8.28-1.54.72-2.23,1.31-.69.58-1.29,1.32-1.8,2.23-.52.91-.89,1.98-1.13,3.21v17.2h6.07v5.93h-17.7v-5.93h4.92l.02-23.81h-4.95v-5.93h11.39v4.92c.4-.73.87-1.41,1.38-2.04.53-.62,1.11-1.17,1.73-1.64.62-.48,1.32-.85,2.09-1.1.78-.26,1.62-.4,2.51-.4h3.38c1.06,0,2.11.02,3.16.07v7.73h0Zm5.93-25.43h11.55v20.86c1.51-1.17,3.16-2.1,4.95-2.79,1.79-.69,3.64-1.03,5.55-1.03,2.34,0,4.49.44,6.45,1.31,1.95.86,3.63,2.08,5.04,3.68,1.41,1.58,2.5,3.48,3.28,5.7.78,2.2,1.17,4.65,1.17,7.33,0,2.88-.44,5.48-1.31,7.8-.86,2.33-2.07,4.33-3.63,6-1.55,1.68-3.39,2.97-5.53,3.89-2.13.9-4.46,1.36-7.01,1.36-1.77,0-3.42-.26-4.97-.77-1.55-.53-2.88-1.2-3.98-2.02v2.23h-6.4v-47.65h-5.16v-5.91h0Zm20.37,22.69c-1.68,0-3.28.35-4.83,1.03-1.53.69-2.86,1.62-3.98,2.79v19.17c.73.75,1.81,1.43,3.23,2.02,1.42.58,3.21.87,5.37.87,1.47,0,2.88-.27,4.24-.82,1.36-.54,2.56-1.37,3.59-2.48,1.03-1.13,1.85-2.51,2.46-4.15.62-1.65.94-3.59.94-5.79,0-2.03-.3-3.82-.89-5.37-.58-1.56-1.37-2.88-2.37-3.96-.99-1.09-2.15-1.91-3.49-2.46-1.33-.56-2.75-.84-4.27-.84Zm45.3,27.56c-1.35,1.27-2.84,2.31-4.48,3.12-1.64.8-3.51,1.2-5.6,1.2-1.75,0-3.35-.28-4.8-.84-1.45-.54-2.71-1.29-3.77-2.25-1.05-.95-1.87-2.05-2.46-3.3-.58-1.27-.87-2.61-.87-4.03,0-1.51.22-2.86.66-4.03.45-1.17,1.05-2.19,1.8-3.05.75-.85,1.62-1.58,2.6-2.16,1-.59,2.04-1.07,3.14-1.43,1.09-.36,2.2-.61,3.33-.75,1.14-.15,2.23-.23,3.26-.23,1.65,0,3.05.06,4.17.16,1.13.09,2.15.23,3.07.42l.02-2.93c0-1.27-.19-2.36-.56-3.28-.36-.94-.88-1.7-1.55-2.3-.66-.61-1.45-1.06-2.39-1.36-.93-.31-1.96-.47-3.09-.47-1.08,0-2.12.08-3.12.23-.98.16-1.91.35-2.76.59-.86.24-1.65.51-2.37.82-.72.32-1.33.65-1.85.99l-2.09-4.43c.84-.56,1.76-1.08,2.77-1.55,1.01-.47,2.07-.87,3.19-1.2,1.13-.33,2.26-.58,3.42-.77,1.15-.2,2.3-.3,3.42-.3,2.06,0,3.92.25,5.58.75,1.65.49,3.05,1.24,4.2,2.27,1.15,1.03,2.04,2.34,2.65,3.94.62,1.59.94,3.51.94,5.74l-.02,17.81h3.94v5.93h-10.36v-3.3Zm-8.67-1.08c.85,0,1.71-.1,2.55-.31.84-.2,1.64-.48,2.39-.84.76-.36,1.46-.77,2.11-1.24.64-.47,1.18-.95,1.62-1.45l.05-8.06h-7.43c-1.25,0-2.38.14-3.4.42-1.02.28-1.9.69-2.65,1.22-.75.52-1.34,1.17-1.76,1.95-.41.78-.61,1.68-.61,2.7,0,.94.17,1.76.52,2.46.34.69.83,1.28,1.45,1.76.64.47,1.4.82,2.27,1.05.87.23,1.83.35,2.88.35Zm49.62-1.55h5.02v-16.26c0-2.73-.7-4.81-2.09-6.21-1.4-1.42-3.39-2.13-5.98-2.13-1.49,0-2.99.36-4.5,1.08-1.52.7-2.95,1.59-4.31,2.65v20.88h5.04v5.93h-16.66v-5.93h4.95v-23.81h-4.95v-5.93h11.37v4.22h.07c.75-.67,1.55-1.3,2.41-1.9.85-.59,1.76-1.11,2.7-1.55.95-.43,1.93-.78,2.95-1.03,1.01-.26,2.08-.4,3.21-.4,1.9,0,3.62.27,5.16.8,1.55.53,2.86,1.34,3.94,2.41,1.08,1.08,1.9,2.46,2.48,4.15.59,1.69.89,3.68.89,5.98v17.06h4.95v5.93h-16.64v-5.93h0Zm40.51-46.26h21.09c2.34,0,4.49.3,6.45.91,1.97.61,3.67,1.51,5.11,2.7,1.44,1.17,2.54,2.65,3.33,4.43.8,1.77,1.2,3.8,1.2,6.09,0,1.89-.39,3.68-1.17,5.37-.79,1.69-1.89,3.16-3.3,4.43-1.43,1.26-3.13,2.27-5.11,3-1.99.74-4.19,1.1-6.61,1.1h-9.28v18.23h5.25v5.93h-16.95v-5.93h4.97v-40.31h-4.97v-5.95h0Zm11.7,5.95v16.43h9.4c1.31,0,2.51-.17,3.61-.51,1.09-.36,2.03-.88,2.81-1.57.8-.7,1.41-1.57,1.85-2.6.45-1.03.68-2.21.68-3.56,0-2.58-.78-4.58-2.34-6.02-1.55-1.43-4.03-2.16-7.45-2.16,0,0-8.55,0-8.55,0Zm48.95,42.94c-1.35,1.27-2.83,2.31-4.48,3.12-1.64.8-3.51,1.2-5.6,1.2-1.75,0-3.35-.28-4.8-.84-1.45-.54-2.71-1.29-3.77-2.25-1.05-.95-1.87-2.05-2.46-3.3-.58-1.27-.87-2.61-.87-4.03,0-1.51.22-2.86.66-4.03.45-1.17,1.05-2.19,1.8-3.05.75-.85,1.62-1.58,2.6-2.16,1-.59,2.04-1.07,3.14-1.43,1.09-.36,2.2-.61,3.33-.75,1.14-.15,2.23-.23,3.26-.23,1.65,0,3.05.06,4.17.16,1.13.09,2.15.23,3.07.42l.02-2.93c0-1.27-.19-2.36-.56-3.28-.36-.94-.88-1.7-1.55-2.3-.66-.61-1.45-1.06-2.39-1.36-.93-.31-1.96-.47-3.09-.47-1.08,0-2.12.08-3.12.23-.99.16-1.91.35-2.77.59-.86.24-1.65.51-2.37.82-.72.32-1.34.65-1.85.99l-2.08-4.43c.84-.56,1.76-1.08,2.77-1.55,1.01-.47,2.07-.87,3.19-1.2,1.13-.33,2.26-.58,3.42-.77,1.15-.2,2.3-.3,3.42-.3,2.06,0,3.92.25,5.58.75,1.65.49,3.05,1.24,4.2,2.27,1.15,1.03,2.04,2.34,2.65,3.94.62,1.59.94,3.51.94,5.74l-.02,17.81h3.94v5.93h-10.36v-3.3h0Zm-8.67-1.08c.86,0,1.71-.1,2.55-.31.84-.2,1.64-.48,2.39-.84.76-.36,1.47-.77,2.11-1.24.64-.47,1.18-.95,1.62-1.45l.05-8.06h-7.43c-1.25,0-2.38.14-3.4.42-1.02.28-1.9.69-2.65,1.22-.75.52-1.33,1.17-1.76,1.95-.41.78-.61,1.68-.61,2.7,0,.94.17,1.76.52,2.46.34.69.83,1.28,1.45,1.76.64.47,1.39.82,2.27,1.05.87.23,1.83.35,2.88.35Zm47.16-49.17h11.27v47.63h5.23v5.93h-11.65v-2.93c-1.14,1.17-2.47,2.09-3.98,2.74-1.52.66-3.24.99-5.16.99-2.43,0-4.68-.42-6.75-1.24-2.06-.84-3.86-2.07-5.39-3.7-1.54-1.62-2.73-3.61-3.59-5.95-.86-2.36-1.29-5.05-1.29-8.09,0-2.75.41-5.25,1.24-7.5.83-2.26,2-4.19,3.51-5.79,1.51-1.59,3.33-2.82,5.46-3.7,2.14-.89,4.51-1.33,7.13-1.33,1.73,0,3.31.19,4.73.56,1.42.38,2.78,1.03,4.08,1.97v-13.66h-4.85s0-5.91,0-5.91Zm-3.47,48.77c1.9,0,3.5-.28,4.78-.84,1.28-.56,2.46-1.41,3.54-2.53v-19.97c-1.14-.97-2.46-1.66-3.96-2.09-1.49-.43-3.01-.66-4.57-.66s-2.94.28-4.27.84c-1.33.55-2.5,1.37-3.49,2.46-1,1.08-1.79,2.4-2.37,3.96-.56,1.55-.84,3.34-.84,5.37,0,2.2.27,4.14.82,5.81.54,1.68,1.31,3.08,2.3,4.22.98,1.13,2.16,1.98,3.54,2.55,1.39.58,2.9.87,4.52.87"/>
      <path id="path28" class="cls-6" d="m208.76,221.68v-32.3h22.36v3.87h-17.98v9.87h15.75v3.87h-15.75v14.7h-4.38Zm30.87-23.51v15.16c0,1.97.38,3.39,1.15,4.27.76.88,2,1.31,3.7,1.31,1.9,0,3.41-.73,4.52-2.2,1.13-1.48,1.69-3.48,1.69-6v-12.54h3.94v23.51h-3.75v-3.59c-.27.42-.56.83-.87,1.22-1.69,2-3.8,3-6.33,3-2.67,0-4.68-.66-6.02-1.99-1.33-1.32-1.99-3.33-1.99-6v-16.15h3.96Zm21.71,23.51v-23.51h3.75v4.01c.34-.62.7-1.2,1.08-1.71,1.5-2,3.34-3,5.53-3,.36,0,.73.06,1.13.19v4.05l-.82-.02c-2.15,0-3.8.65-4.97,1.92-1.16,1.28-1.74,3.11-1.74,5.48v12.59h-3.96Zm14.52,0v-23.51h3.75v3.47l.89-1.17c1.7-2,3.84-3,6.42-3s4.59.7,6,2.11c1.41,1.41,2.11,3.41,2.11,6v16.1h-3.96v-14.77c0-2.06-.4-3.54-1.2-4.45-.8-.92-2.09-1.38-3.87-1.38-1.91,0-3.42.72-4.55,2.16-1.11,1.44-1.66,3.39-1.66,5.86v12.59h-3.94,0Zm25.28,0v-23.51h3.96v23.51h-3.96Zm-.05-32.3h4.05v4.48h-4.05v-4.48Zm18.65,32.27c-1.35.2-2.32.3-2.93.3-1.73,0-2.96-.38-3.68-1.13-.7-.76-1.05-2.07-1.05-3.94v-15.49h-3.26v-3.23h3.26v-6.59h3.96v6.59h3.7v3.23h-3.7v15.49c0,.52.2.93.61,1.24.42.32.98.47,1.69.47h1.41v3.05Zm8.03-23.48v15.16c0,1.97.38,3.39,1.15,4.27.76.88,2,1.31,3.7,1.31,1.9,0,3.41-.73,4.52-2.2,1.13-1.48,1.69-3.48,1.69-6v-12.54h3.94v23.51h-3.75v-3.59c-.27.42-.56.83-.87,1.22-1.69,2-3.8,3-6.33,3-2.67,0-4.68-.66-6.02-1.99-1.33-1.32-1.99-3.33-1.99-6v-16.15h3.96Zm21.71,23.51v-23.51h3.75v4.01c.34-.62.7-1.2,1.08-1.71,1.5-2,3.34-3,5.53-3,.36,0,.73.06,1.13.19v4.05l-.82-.02c-2.15,0-3.8.65-4.97,1.92-1.16,1.28-1.73,3.11-1.73,5.48v12.59h-3.96Zm24.08.63c-3.32,0-5.92-1.05-7.83-3.16-1.91-2.11-2.86-5.02-2.86-8.74,0-3.95,1.01-7.09,3.02-9.42,2.01-2.34,4.72-3.52,8.11-3.52,3.08,0,5.56,1.14,7.45,3.42,1.89,2.28,2.83,5.28,2.83,9l-.05,1.41h-17.18c.15,2.34.69,4.14,1.59,5.37,1.13,1.5,2.88,2.25,5.27,2.25,1.51,0,2.84-.42,3.96-1.27,1.13-.85,1.81-1.94,2.06-3.26h3.91c-.58,2.58-1.75,4.55-3.52,5.91-1.75,1.35-4.02,2.02-6.8,2.02h0Zm6.61-14.18c-.13-2.19-.67-3.89-1.64-5.11-1.07-1.34-2.63-2.01-4.69-2.01s-3.75.77-4.99,2.32c-.98,1.22-1.58,2.82-1.78,4.8"/>
    </g>
  </g>
</svg>